<svg width="100%" height="100%" viewBox="0 0 20 21" fill="none" xmlns="http://www.w3.org/2000/svg">
<path id="Vector" fill-rule="evenodd" clip-rule="evenodd" d="M7.905 4.20399C7.84618 3.8648 7.80187 3.52945 7.77324 3.19406C7.73011 2.69098 7.75677 2.18405 7.74148 1.68097C7.73481 1.46754 7.70854 0.911106 7.71913 0.83107C7.8152 0.133615 8.39439 0.0268882 8.56379 0.0078321C8.64575 -0.00360158 9.48728 -0.0950301 9.66884 0.812042C9.89158 1.92111 9.96295 3.03778 9.88413 4.1316C10.068 5.06154 10.3826 5.98765 10.7978 6.82612C12.4503 10.1609 15.5992 10.4849 19.0108 10.4544C19.5355 10.4468 19.9712 10.847 19.9986 11.3539C20.0261 11.8646 19.6355 12.3067 19.1132 12.3524C17.2062 12.5315 13.8228 14.0179 12.653 15.5653C12.4083 15.8892 12.266 16.6705 12.0778 17.4366C11.815 18.4999 11.5025 19.5518 11.1523 19.9939C11.0998 20.0625 10.461 20.7638 10.2704 20.8667C9.81237 21.1106 9.44573 20.9696 9.2375 20.84C9.02927 20.7104 8.79359 20.4551 8.69948 20.032C8.60105 19.5899 8.68418 18.6828 8.66889 18.4885C8.61321 17.7834 8.46813 16.3999 8.17206 15.2108C8.01246 14.5705 7.84226 13.9798 7.5607 13.6863C6.51839 12.6001 4.85179 12.7602 3.44832 12.9393C3.28715 12.9584 3.12598 12.9813 2.96521 13.0003C2.39386 13.1642 1.7872 13.2862 1.14605 13.3586C0.177852 13.4691 0.0186539 12.6039 0.0100268 12.5468C-0.00801166 12.421 -0.0750749 11.7731 0.6547 11.5139C0.734304 11.4873 1.32174 11.3615 1.548 11.3119C1.86328 11.2433 2.18209 11.19 2.50208 11.1405C5.80743 10.1419 7.60266 7.33682 7.905 4.20399ZM9.03947 7.66843C10.2873 10.1762 12.1809 11.3882 14.4255 11.937C13.024 12.6497 11.7488 13.5415 11.0731 14.4372C10.8166 14.7764 10.5814 15.4586 10.3692 16.2246C10.2543 15.5119 10.099 14.7535 9.89395 14.1056C9.66062 13.3662 9.3465 12.7526 8.99593 12.3867C8.31909 11.6817 7.46971 11.2891 6.55642 11.0947C7.64971 10.1533 8.4787 8.97949 9.03947 7.66843Z" fill="#F1A744"/>
</svg>
