<svg width="24" height="24" viewBox="0 0 24 24" fill="none" xmlns="http://www.w3.org/2000/svg">
<g id="User">
<path id="Vector (Stroke)" fill-rule="evenodd" clip-rule="evenodd" d="M12 4C9.23858 4 7 6.23858 7 9C7 11.7614 9.23858 14 12 14C14.7614 14 17 11.7614 17 9C17 6.23858 14.7614 4 12 4ZM5 9C5 5.13401 8.13401 2 12 2C15.866 2 19 5.13401 19 9C19 12.866 15.866 16 12 16C8.13401 16 5 12.866 5 9Z" fill="#1A1A1A"/>
<path id="Vector (Stroke)_2" fill-rule="evenodd" clip-rule="evenodd" d="M12.0013 16C10.3335 16 8.69513 16.4389 7.25068 17.2725C5.80623 18.1062 4.6066 19.3053 3.7723 20.7494C3.49602 21.2276 2.88438 21.3913 2.40617 21.115C1.92795 20.8387 1.76426 20.2271 2.04054 19.7489C3.05041 18.0009 4.5025 16.5494 6.25094 15.5403C7.99937 14.5312 9.98257 14 12.0013 14C14.0201 14 16.0032 14.5313 17.7517 15.5404C19.5001 16.5496 20.9521 18.0011 21.962 19.7491C22.2382 20.2273 22.0745 20.8389 21.5963 21.1152C21.1181 21.3915 20.5065 21.2278 20.2302 20.7495C19.3959 19.3054 18.1963 18.1063 16.7519 17.2726C15.3075 16.4389 13.6691 16 12.0013 16Z" fill="#1A1A1A"/>
</g>
</svg>
