<svg width="24" height="24" viewBox="0 0 24 24" fill="none" xmlns="http://www.w3.org/2000/svg">
<g id="Icon / Globe">
<path id="Vector" d="M12.25 22C14.9022 22 17.4457 20.9464 19.3211 19.0711C21.1964 17.1957 22.25 14.6522 22.25 12C22.25 9.34784 21.1964 6.8043 19.3211 4.92893C17.4457 3.05357 14.9022 2 12.25 2C9.59784 2 7.0543 3.05357 5.17893 4.92893C3.30357 6.8043 2.25 9.34784 2.25 12C2.25 14.6522 3.30357 17.1957 5.17893 19.0711C7.0543 20.9464 9.59784 22 12.25 22ZM12.25 3.25C13.0712 3.25 14.0087 3.9875 14.7775 5.635C15.0487 6.2175 15.285 6.8875 15.4763 7.625H9.02375C9.215 6.8875 9.45125 6.2175 9.72375 5.635C10.49 3.9875 11.4275 3.25 12.25 3.25ZM8.59 5.10625C8.22089 5.91477 7.93483 6.75868 7.73625 7.625H4.67C5.7253 5.80109 7.40153 4.41769 9.3925 3.7275C9.09125 4.14 8.8225 4.6075 8.59 5.10625ZM7.49 8.875C7.32822 9.90877 7.24798 10.9537 7.25 12C7.25 13.0875 7.33375 14.14 7.49125 15.125H4.075C3.69378 14.1273 3.49889 13.0681 3.5 12C3.5 10.9 3.70375 9.845 4.075 8.875H7.49125H7.49ZM7.73625 16.375C7.95625 17.3038 8.245 18.1525 8.59 18.8938C8.8225 19.3925 9.09125 19.86 9.3925 20.2725C7.40153 19.5823 5.7253 18.1989 4.67 16.375H7.7375H7.73625ZM9.02375 16.375H15.4763C15.3041 17.0583 15.0697 17.7244 14.7762 18.365C14.01 20.0125 13.0725 20.75 12.25 20.75C11.4288 20.75 10.4913 20.0125 9.7225 18.365C9.4299 17.7243 9.19643 17.0582 9.025 16.375H9.02375ZM15.7425 15.125H8.7575C8.5838 14.0924 8.49766 13.0471 8.5 12C8.5 10.8962 8.59125 9.84375 8.7575 8.875H15.7425C15.9087 9.84375 16 10.8962 16 12C16 13.1038 15.9087 14.1562 15.7425 15.125ZM16.7638 16.375H19.83C18.7747 18.1989 17.0985 19.5823 15.1075 20.2725C15.4088 19.86 15.6775 19.3925 15.91 18.8938C16.255 18.1525 16.5437 17.3038 16.7638 16.375ZM20.4263 15.125H17.0087C17.1663 14.14 17.25 13.0875 17.25 12C17.25 10.9125 17.1663 9.86 17.0087 8.875H20.425C20.7963 9.845 21 10.9 21 12C21 13.1 20.7963 14.155 20.425 15.125H20.4263ZM15.1075 3.7275C17.0985 4.41759 18.7748 5.80101 19.83 7.625H16.7625C16.5639 6.75868 16.2778 5.91477 15.9088 5.10625C15.6862 4.62195 15.4174 4.16023 15.1062 3.7275H15.1075Z" fill="white"/>
</g>
</svg>
