<svg width="100%" height="100%" viewBox="0 0 25 24" fill="none" xmlns="http://www.w3.org/2000/svg">
<g id="MagnifyingGlass">
<path id="Vector (Stroke)" fill-rule="evenodd" clip-rule="evenodd" d="M11.375 3.75C7.43997 3.75 4.25 6.93997 4.25 10.875C4.25 14.81 7.43997 18 11.375 18C15.31 18 18.5 14.81 18.5 10.875C18.5 6.93997 15.31 3.75 11.375 3.75ZM2.75 10.875C2.75 6.11154 6.61154 2.25 11.375 2.25C16.1385 2.25 20 6.11154 20 10.875C20 15.6385 16.1385 19.5 11.375 19.5C6.61154 19.5 2.75 15.6385 2.75 10.875Z" fill="white"/>
<path id="Vector (Stroke)_2" fill-rule="evenodd" clip-rule="evenodd" d="M16.4128 15.9135C16.7057 15.6206 17.1806 15.6206 17.4734 15.9135L22.0297 20.4698C22.3226 20.7627 22.3226 21.2376 22.0297 21.5305C21.7369 21.8234 21.262 21.8234 20.9691 21.5305L16.4128 16.9742C16.1199 16.6813 16.1199 16.2064 16.4128 15.9135Z" fill="white"/>
</g>
</svg>
