<svg width="120" height="34" viewBox="0 0 120 34" fill="none" xmlns="http://www.w3.org/2000/svg">
<g id="Logo Hi-Res">
<g id="Group 632">
<path id="image 1 (Traced)" fill-rule="evenodd" clip-rule="evenodd" d="M41.8733 7.7267C41.8729 7.75821 41.8723 11.8446 41.8718 16.8074L41.8711 25.8309H43.9105H45.9498L46.0088 22.5652L46.0679 19.2996L46.3898 19.7007C46.5669 19.9212 47.2049 20.783 47.8075 21.6158C48.4101 22.4486 49.3532 23.7506 49.903 24.509L50.9029 25.8882H53.4844H56.066L55.0873 24.6564C54.549 23.9789 53.5207 22.7027 52.8022 21.8204C50.5472 19.0512 50.3522 18.787 50.52 18.7272C50.6054 18.6968 50.9801 18.5713 51.3525 18.4484C53.0514 17.8876 54.2683 16.5319 54.6431 14.7823C54.7164 14.4405 54.753 13.6413 54.7245 13.0062C54.6411 11.1427 54.0098 9.83068 52.7653 8.93452C51.3491 7.91473 49.9065 7.67548 45.1524 7.67193C43.3492 7.67055 41.8737 7.69519 41.8733 7.7267ZM48.8797 11.3281C49.4586 11.4584 50.0633 11.8632 50.3392 12.3048C50.5029 12.5669 50.5571 12.8819 50.5571 13.5705C50.5571 14.6226 50.3056 15.16 49.6208 15.5704C49.1698 15.8408 47.6898 16.0661 46.7177 16.0126L46.0679 15.9767L46.036 13.5991L46.004 11.2215L47.2174 11.2242C47.8846 11.2257 48.6328 11.2725 48.8797 11.3281ZM60.6579 14.0272C60.2355 14.1195 59.4532 14.4042 58.9195 14.6598C56.8681 15.642 55.6711 17.3498 55.5065 19.5288C55.4159 20.7285 55.5863 21.6624 56.0884 22.7164C57.0223 24.6768 58.911 25.8571 61.5611 26.1365C64.0974 26.4038 66.4728 25.6868 67.8118 24.2498C68.3815 23.6383 69.0456 22.4442 69.0456 22.0313V21.7632H67.0403H65.035L64.859 22.0933C64.591 22.596 64.0204 23.0018 63.2931 23.2068C61.8399 23.6165 60.4751 22.9256 60.0627 21.5712C59.7873 20.6672 59.5016 20.7191 64.6434 20.7386L69.2228 20.756L69.2581 19.9152C69.3025 18.8539 69.0298 17.6464 68.5689 16.8651C67.8453 15.6383 66.4435 14.5964 64.9108 14.1462C63.9944 13.8771 61.6458 13.8113 60.6579 14.0272ZM71.2401 14.1865C71.205 14.2417 71.1619 17.4515 71.1445 21.3193C71.1165 27.5731 71.0914 28.3979 70.9177 28.7689C70.6784 29.2799 70.2058 29.4589 69.2126 29.4143L68.514 29.3829V30.8138V32.2444L68.8684 32.4114C69.1173 32.5286 69.6448 32.579 70.6404 32.5809C71.9509 32.5833 72.1138 32.5589 72.7961 32.2568C73.948 31.7468 74.6824 30.8678 75.0535 29.5548C75.2981 28.6893 75.3979 14.3275 75.1604 14.1812C74.9572 14.0561 71.3201 14.061 71.2401 14.1865ZM77.5675 14.1886C77.3109 14.3463 77.4494 22.0193 77.7257 22.9614C78.2805 24.852 79.3547 25.8384 81.1642 26.1188C82.6251 26.3451 83.9342 26.038 85.0423 25.2088C85.3851 24.9522 85.7007 24.7423 85.7433 24.7423C85.7861 24.7423 85.8211 25.0001 85.8211 25.3152V25.8882H87.8895H89.958L89.9274 20.0158L89.8968 14.1434H87.8885H85.8801L85.8211 17.6954C85.7647 21.0809 85.7498 21.2696 85.5014 21.7201C84.9654 22.6919 84.0546 23.1284 83.0283 22.9054C82.3518 22.7583 82.211 22.6554 81.9139 22.0905C81.703 21.6895 81.6863 21.3846 81.6863 17.9415C81.6863 14.6584 81.6645 14.217 81.4994 14.1556C81.2102 14.0479 77.7491 14.077 77.5675 14.1886ZM92.282 14.1598C92.2371 14.2033 92.2014 15.9447 92.2025 18.0297C92.2047 22.1692 92.2842 22.8857 92.8698 24.0466C93.508 25.3118 94.5646 25.992 96.1689 26.1703C97.4584 26.3135 98.9951 25.8741 99.9004 25.1031C100.133 24.9047 100.354 24.7423 100.391 24.7423C100.427 24.7423 100.473 24.9872 100.493 25.2866L100.529 25.8309L102.568 25.8623L104.607 25.8935L104.576 20.0185L104.546 14.1434H102.537H100.529L100.47 17.7527C100.414 21.2056 100.4 21.3827 100.148 21.8382C99.8029 22.4651 99.4093 22.7503 98.6812 22.9018C97.6884 23.1083 97.0297 22.8263 96.5568 21.9923C96.4319 21.7721 96.3806 20.831 96.3353 17.9246L96.2762 14.1434L94.3198 14.1121C93.2439 14.0948 92.3268 14.1163 92.282 14.1598ZM106.085 14.1945C106.024 14.291 106.446 15.4662 107.444 17.9819C107.89 19.1055 109.31 22.7183 110.046 24.6013L110.551 25.8926L113.025 25.8617L115.498 25.8309L117.775 20.0444C119.027 16.8619 120.029 14.2193 120 14.172C119.931 14.0567 116.163 14.0649 115.975 14.1807C115.894 14.2309 115.223 16.0455 114.484 18.2133C113.745 20.3809 113.086 22.1721 113.019 22.1938C112.953 22.2153 112.75 21.8051 112.57 21.2819C112.39 20.7588 111.76 18.9387 111.17 17.2371L110.098 14.1434L108.128 14.112C106.914 14.0926 106.13 14.1243 106.085 14.1945ZM63.4657 16.7843C64.0298 17.0129 64.4023 17.3548 64.6993 17.9167C65.0774 18.6319 64.9206 18.6834 62.4299 18.6617C61.2928 18.6519 60.2712 18.597 60.1595 18.5399C59.9126 18.4137 60.0328 18.0256 60.5046 17.4257C61.0905 16.6806 62.4717 16.3814 63.4657 16.7843Z" fill="white"/>
<path id="Union" fill-rule="evenodd" clip-rule="evenodd" d="M70.7881 12.1276C69.8824 11.5738 68.4726 9.91615 70.0793 7.71615C71.6496 5.56594 72.6707 4.04328 73.0102 3.51188V3.47656C73.0139 3.48232 73.0176 3.48822 73.0215 3.49425C73.0253 3.48822 73.0291 3.48232 73.0327 3.47656V3.51188C73.3723 4.04328 74.3934 5.56594 75.9637 7.71615C77.5703 9.91615 76.1606 11.5738 75.2548 12.1276C75.5372 11.1236 73.8909 8.97608 73.0215 8.01502C72.1521 8.97608 70.5058 11.1236 70.7881 12.1276Z" fill="#F99E26"/>
</g>
<path id="Subtract" fill-rule="evenodd" clip-rule="evenodd" d="M17.0117 33.5C26.4071 33.5 34.0235 26.1127 34.0235 17C34.0235 7.8873 26.4071 0.5 17.0117 0.5C7.61642 0.5 0 7.8873 0 17C0 26.1127 7.61642 33.5 17.0117 33.5ZM18.7111 7.22181C18.3135 6.61257 17.7823 5.844 17.5311 5.514C17.2797 5.184 17.0355 4.91401 16.9884 4.91401C16.8691 4.91401 14.5746 8.29683 14.1726 9.06529C13.6774 10.0119 13.3968 10.7668 13.3968 11.1524C13.3968 11.6897 13.6967 12.4146 14.1154 12.889C14.5319 13.361 14.8054 13.4458 14.8054 13.103C14.8054 12.6031 16.6987 9.53391 17.0024 9.54148C17.1483 9.54515 17.2243 9.63858 18.0423 10.8209C18.6532 11.7041 19.2477 12.8466 19.2478 13.1377C19.248 13.6139 19.9002 13.0906 20.3338 12.2663C20.9315 11.13 20.61 10.1305 18.7111 7.22181ZM13.2286 14.8019C13.3364 14.6326 12.7595 14.0823 12.181 13.8028C11.6381 13.5404 10.7101 13.4454 10.2545 13.6056C9.17818 13.9842 5.15431 16.3446 4.72002 16.8521C4.5473 17.0539 4.68805 17.191 5.86793 17.9701C9.32912 20.2558 10.821 20.8119 12.0423 20.2719C12.5671 20.0399 13.1801 19.5536 13.1801 19.3694C13.1801 19.2956 12.8878 19.1319 12.5307 19.0055C11.88 18.7754 9.27927 17.1867 9.27927 17.0192C9.27927 16.8914 11.0426 15.7273 11.9159 15.2785C12.3231 15.0693 12.7712 14.8981 12.9118 14.8981C13.0523 14.8981 13.1949 14.8548 13.2286 14.8019ZM24.2008 13.8073C25.6827 14.3823 29.4993 16.7533 29.4024 17.0388C29.3244 17.2685 26.5895 19.0144 24.9908 19.8549C23.8549 20.4522 22.7935 20.6311 22.0974 20.3426C21.6612 20.1619 20.8733 19.5331 20.8733 19.3658C20.8733 19.2874 21.0562 19.1675 21.2796 19.0992C22.1285 18.8399 24.7977 17.1797 24.7107 16.9651C24.6581 16.8355 22.9994 15.7382 22.1735 15.2868C21.9053 15.1403 21.4781 14.9672 21.224 14.9023C20.7282 14.7755 20.7151 14.6382 21.1612 14.2483C22.0308 13.4883 23.0121 13.346 24.2008 13.8073ZM18.9229 17.0646C18.9229 16.2268 18.585 15.6905 17.8166 15.3083C16.932 14.8682 15.8484 15.2115 15.3373 16.0937C14.8648 16.909 15.1203 18.0072 15.9052 18.5348C17.1694 19.3845 18.9229 18.5302 18.9229 17.0646ZM14.8068 20.9148C14.8076 21.0449 14.9552 21.4326 15.135 21.7765C15.6017 22.6691 16.852 24.4623 17.0054 24.4589C17.2975 24.4526 19.0802 21.6701 19.2048 21.026C19.2887 20.5923 19.4009 20.59 19.8085 21.0131C20.7855 22.0276 20.8425 23.0661 20.0091 24.6665C19.4042 25.8282 17.3658 28.8627 17.0722 29.0387C16.936 29.1203 16.9058 29.0833 15.7399 27.3983C14.2256 25.2098 13.3968 23.5981 13.3968 22.8422C13.3968 22.3098 13.6982 21.5837 14.1154 21.111C14.5402 20.6296 14.8046 20.5545 14.8068 20.9148Z" fill="white"/>
</g>
</svg>
